<?xml version="1.0" encoding="UTF-8" standalone="no"?>
<!-- Created with Inkscape (http://www.inkscape.org/) -->

<svg
   xmlns:dc="http://purl.org/dc/elements/1.1/"
   xmlns:cc="http://creativecommons.org/ns#"
   xmlns:rdf="http://www.w3.org/1999/02/22-rdf-syntax-ns#"
   xmlns:svg="http://www.w3.org/2000/svg"
   xmlns="http://www.w3.org/2000/svg"
   xmlns:sodipodi="http://sodipodi.sourceforge.net/DTD/sodipodi-0.dtd"
   xmlns:inkscape="http://www.inkscape.org/namespaces/inkscape"
   width="500"
   height="200"
   viewBox="0 0 132.29167 52.916667"
   version="1.1"
   id="svg8"
   inkscape:version="0.92.3 (2405546, 2018-03-11)"
   sodipodi:docname="H.svg">
  <defs
     id="defs2" />
  <sodipodi:namedview
     id="base"
     pagecolor="#ffffff"
     bordercolor="#666666"
     borderopacity="1.0"
     inkscape:pageopacity="0.0"
     inkscape:pageshadow="2"
     inkscape:zoom="1.6905748"
     inkscape:cx="278.87778"
     inkscape:cy="116.64755"
     inkscape:document-units="mm"
     inkscape:current-layer="layer2"
     showgrid="true"
     units="px"
     inkscape:snap-object-midpoints="true"
     inkscape:window-width="1920"
     inkscape:window-height="1001"
     inkscape:window-x="-9"
     inkscape:window-y="-9"
     inkscape:window-maximized="1">
    <inkscape:grid
       spacingx="2.6458333"
       spacingy="2.6458333"
       type="xygrid"
       id="grid4518" />
  </sodipodi:namedview>
  <metadata
     id="metadata5">
    <rdf:RDF>
      <cc:Work
         rdf:about="">
        <dc:format>image/svg+xml</dc:format>
        <dc:type
           rdf:resource="http://purl.org/dc/dcmitype/StillImage" />
        <dc:title></dc:title>
      </cc:Work>
    </rdf:RDF>
  </metadata>
  <g
     inkscape:groupmode="layer"
     id="layer2"
     inkscape:label="edges">
    <path
       style="fill:none;stroke:#000000;stroke-width:0.5291667;stroke-linecap:butt;stroke-linejoin:miter;stroke-miterlimit:4;stroke-dasharray:none;stroke-opacity:1"
       d="m 0,13.229167 c 13.229166,0 21.166666,7.9375 26.458333,13.229167 C 21.166666,31.75 13.229167,39.6875 0,39.6875"
       id="path1428"
       inkscape:connector-curvature="0"
       sodipodi:nodetypes="ccc" />
    <path
       style="fill:none;stroke:#000000;stroke-width:0.5291667;stroke-linecap:butt;stroke-linejoin:miter;stroke-miterlimit:4;stroke-dasharray:none;stroke-opacity:1"
       d="m 52.916666,13.229167 c -13.229167,0 -18.520833,7.9375 -26.458333,13.229167 C 34.395833,31.75 39.6875,39.6875 52.916666,39.6875"
       id="path1430"
       inkscape:connector-curvature="0"
       sodipodi:nodetypes="ccc" />
    <text
       xml:space="preserve"
       style="font-style:normal;font-variant:normal;font-weight:normal;font-stretch:normal;font-size:4.23333359px;line-height:1.25;font-family:Tahoma;-inkscape-font-specification:Tahoma;letter-spacing:0px;word-spacing:0px;fill:#000000;fill-opacity:1;stroke:none;stroke-width:0.5291667;stroke-miterlimit:4;stroke-dasharray:none"
       x="-28.339493"
       y="50.509411"
       id="text5177-2"
       transform="rotate(-90)"><tspan
         sodipodi:role="line"
         id="tspan5175-9"
         x="-28.339493"
         y="50.509411"
         style="font-size:4.23333359px;stroke-width:0.5291667;stroke-miterlimit:4;stroke-dasharray:none">...</tspan></text>
    <text
       xml:space="preserve"
       style="font-style:normal;font-variant:normal;font-weight:normal;font-stretch:normal;font-size:4.23333359px;line-height:1.25;font-family:Tahoma;-inkscape-font-specification:Tahoma;letter-spacing:0px;word-spacing:0px;opacity:1;fill:#000000;fill-opacity:1;stroke:none;stroke-width:0.5291667;stroke-miterlimit:4;stroke-dasharray:none"
       x="-28.357012"
       y="2.9406803"
       id="text5177-2-1"
       transform="rotate(-90)"><tspan
         sodipodi:role="line"
         id="tspan5175-9-1"
         x="-28.357012"
         y="2.9406803"
         style="font-size:4.23333359px;stroke-width:0.5291667;stroke-miterlimit:4;stroke-dasharray:none">...</tspan></text>
    <rect
       style="opacity:1;fill:#f6f8d8;fill-opacity:1;stroke:#000000;stroke-width:0.52916664;stroke-linejoin:round;stroke-miterlimit:4;stroke-dasharray:none;stroke-opacity:1"
       id="rect5910"
       width="5.2916665"
       height="5.2916665"
       x="2.6458335"
       y="10.583334" />
    <rect
       style="opacity:1;fill:#f6f8d8;fill-opacity:1;stroke:#000000;stroke-width:0.52916664;stroke-linejoin:round;stroke-miterlimit:4;stroke-dasharray:none;stroke-opacity:1"
       id="rect5910-3"
       width="5.2916665"
       height="5.2916665"
       x="44.979164"
       y="10.583334" />
    <rect
       style="opacity:1;fill:#f6f8d8;fill-opacity:1;stroke:#000000;stroke-width:0.52916664;stroke-linejoin:round;stroke-miterlimit:4;stroke-dasharray:none;stroke-opacity:1"
       id="rect5910-9"
       width="5.2916665"
       height="5.2916665"
       x="44.979164"
       y="37.041668" />
    <rect
       style="opacity:1;fill:#f6f8d8;fill-opacity:1;stroke:#000000;stroke-width:0.52916664;stroke-linejoin:round;stroke-miterlimit:4;stroke-dasharray:none;stroke-opacity:1"
       id="rect5910-37"
       width="5.2916665"
       height="5.2916665"
       x="2.6458335"
       y="37.041668" />
    <path
       style="fill:none;stroke:#000000;stroke-width:0.52916676;stroke-linecap:butt;stroke-linejoin:miter;stroke-miterlimit:4;stroke-dasharray:none;stroke-opacity:1"
       d="m 79.374999,13.229167 c 13.229166,0 21.166671,7.9375 26.458341,13.229168 C 100.54167,31.75 92.604166,39.687501 79.374999,39.687501"
       id="path1428-5"
       inkscape:connector-curvature="0"
       sodipodi:nodetypes="ccc" />
    <path
       style="fill:none;stroke:#000000;stroke-width:0.52916676;stroke-linecap:butt;stroke-linejoin:miter;stroke-miterlimit:4;stroke-dasharray:none;stroke-opacity:1"
       d="m 132.29167,13.229167 c -13.22917,0 -18.52083,7.9375 -26.45833,13.229168 7.9375,5.291665 13.22916,13.229166 26.45833,13.229166"
       id="path1430-8"
       inkscape:connector-curvature="0"
       sodipodi:nodetypes="ccc" />
    <text
       xml:space="preserve"
       style="font-style:normal;font-variant:normal;font-weight:normal;font-stretch:normal;font-size:4.23333406px;line-height:1.25;font-family:Tahoma;-inkscape-font-specification:Tahoma;letter-spacing:0px;word-spacing:0px;fill:#000000;fill-opacity:1;stroke:none;stroke-width:0.52916676;stroke-miterlimit:4;stroke-dasharray:none"
       x="-28.339495"
       y="129.8844"
       id="text5177-2-7"
       transform="rotate(-90)"><tspan
         sodipodi:role="line"
         id="tspan5175-9-9"
         x="-28.339495"
         y="129.8844"
         style="font-size:4.23333406px;stroke-width:0.52916676;stroke-miterlimit:4;stroke-dasharray:none">...</tspan></text>
    <text
       xml:space="preserve"
       style="font-style:normal;font-variant:normal;font-weight:normal;font-stretch:normal;font-size:4.23333406px;line-height:1.25;font-family:Tahoma;-inkscape-font-specification:Tahoma;letter-spacing:0px;word-spacing:0px;opacity:1;fill:#000000;fill-opacity:1;stroke:none;stroke-width:0.52916676;stroke-miterlimit:4;stroke-dasharray:none"
       x="-28.357012"
       y="82.315681"
       id="text5177-2-1-2"
       transform="rotate(-90)"><tspan
         sodipodi:role="line"
         id="tspan5175-9-1-7"
         x="-28.357012"
         y="82.315681"
         style="font-size:4.23333406px;stroke-width:0.52916676;stroke-miterlimit:4;stroke-dasharray:none">...</tspan></text>
    <circle
       style="fill:#e8a6a6;fill-opacity:1;stroke:#000000;stroke-width:0.5291667;stroke-linejoin:round;stroke-miterlimit:4;stroke-dasharray:none;stroke-opacity:1"
       id="path4525-0"
       cx="105.83333"
       cy="26.458336"
       r="2.6458333" />
    <path
       id="text2175-2"
       d="m 106.30154,25.60468 h 0.37021 l -0.22426,1.00822 c -0.0435,0.19163 -0.0733,0.30921 -0.0894,0.35276 0.0581,0.26714 0.14226,0.40069 0.25275,0.40069 0.13052,0 0.19816,-0.09 0.20251,-0.27002 h 0.0783 c -0.004,0.1684 -0.0352,0.3045 -0.0924,0.4083 -0.0574,0.10384 -0.13247,0.15561 -0.22557,0.15561 -0.0768,0 -0.1342,-0.0311 -0.17184,-0.0935 -0.0378,-0.0624 -0.0785,-0.19018 -0.12202,-0.38325 -0.15097,0.31793 -0.39784,0.4768 -0.74043,0.4768 -0.23361,0 -0.4196,-0.091 -0.5575,-0.2732 -0.13791,-0.1822 -0.20686,-0.44315 -0.20686,-0.78285 0,-0.33388 0.0755,-0.59375 0.22643,-0.77958 0.15096,-0.18581 0.33259,-0.27872 0.54445,-0.27872 0.14965,0 0.27233,0.053 0.36804,0.15896 0.0959,0.10598 0.18076,0.27873 0.25471,0.51827 z m -0.19163,0.85363 c -0.0683,-0.23374 -0.14443,-0.41628 -0.22861,-0.54766 -0.0842,-0.13139 -0.18511,-0.19708 -0.30279,-0.19708 -0.26558,0 -0.39849,0.31066 -0.39849,0.932 0,0.58941 0.12703,0.88409 0.38109,0.88409 0.22078,0 0.38413,-0.25984 0.49006,-0.77957 z"
       inkscape:connector-curvature="0"
       sodipodi:nodetypes="ccccscccsccssscsccccsssscc"
       style="stroke-width:0.25771108" />
  </g>
  <g
     inkscape:label="Layer 1"
     inkscape:groupmode="layer"
     id="layer1"
     transform="translate(0,-244.08332)"
     style="display:inline;opacity:1">
    <path
       style="fill:none;stroke:#000000;stroke-width:0.5291667;stroke-linecap:butt;stroke-linejoin:miter;stroke-miterlimit:4;stroke-dasharray:none;stroke-opacity:1"
       d="M 60.854166,267.89582 H 71.437499"
       id="path1424"
       inkscape:connector-curvature="0" />
    <path
       style="fill:none;stroke:#000000;stroke-width:0.5291667;stroke-linecap:butt;stroke-linejoin:miter;stroke-miterlimit:4;stroke-dasharray:none;stroke-opacity:1"
       d="M 60.854166,273.18749 H 71.437499"
       id="path1426"
       inkscape:connector-curvature="0" />
    <g
       id="g5908"
       transform="translate(-1.6658049,-7.2995023)">
      <circle
         r="2.6458333"
         cy="277.84116"
         cx="28.124138"
         id="path4525"
         style="fill:#dbf8d8;fill-opacity:1;stroke:#000000;stroke-width:0.5291667;stroke-linejoin:round;stroke-miterlimit:4;stroke-dasharray:none;stroke-opacity:1" />
      <path
         style="stroke-width:0.25771108"
         sodipodi:nodetypes="ccccscccsccssscsccccsssscc"
         inkscape:connector-curvature="0"
         d="m 28.59235,276.9875 h 0.370205 l -0.224259,1.00822 c -0.0435,0.19163 -0.0733,0.30921 -0.08939,0.35276 0.05808,0.26714 0.142256,0.40069 0.252751,0.40069 0.130516,0 0.198159,-0.09 0.202509,-0.27002 h 0.07831 c -0.0043,0.1684 -0.03524,0.3045 -0.09245,0.4083 -0.05743,0.10384 -0.132473,0.15561 -0.225569,0.15561 -0.07679,0 -0.134205,-0.0311 -0.17184,-0.0935 -0.03785,-0.0624 -0.07852,-0.19018 -0.122021,-0.38325 -0.150968,0.31793 -0.397843,0.4768 -0.740433,0.4768 -0.233609,0 -0.419593,-0.091 -0.557499,-0.2732 -0.137906,-0.1822 -0.206859,-0.44315 -0.206859,-0.78285 0,-0.33388 0.07548,-0.59375 0.226434,-0.77958 0.150956,-0.18581 0.332591,-0.27872 0.544449,-0.27872 0.149647,0 0.272328,0.053 0.368042,0.15896 0.09592,0.10598 0.180758,0.27873 0.25471,0.51827 z m -0.191634,0.85363 c -0.0683,-0.23374 -0.144431,-0.41628 -0.228609,-0.54766 -0.08418,-0.13139 -0.185108,-0.19708 -0.302789,-0.19708 -0.265586,0 -0.398492,0.31066 -0.398492,0.932 0,0.58941 0.127031,0.88409 0.381091,0.88409 0.220775,0 0.384133,-0.25984 0.490062,-0.77957 z"
         id="text2175" />
    </g>
  </g>
</svg>
