<?xml version="1.0" encoding="UTF-8" standalone="no"?>
<!-- Created with Inkscape (http://www.inkscape.org/) -->

<svg
   xmlns:dc="http://purl.org/dc/elements/1.1/"
   xmlns:cc="http://creativecommons.org/ns#"
   xmlns:rdf="http://www.w3.org/1999/02/22-rdf-syntax-ns#"
   xmlns:svg="http://www.w3.org/2000/svg"
   xmlns="http://www.w3.org/2000/svg"
   xmlns:sodipodi="http://sodipodi.sourceforge.net/DTD/sodipodi-0.dtd"
   xmlns:inkscape="http://www.inkscape.org/namespaces/inkscape"
   width="500"
   height="200"
   viewBox="0 0 132.29167 52.916667"
   version="1.1"
   id="svg8"
   inkscape:version="0.92.3 (2405546, 2018-03-11)"
   sodipodi:docname="pi.svg">
  <defs
     id="defs2" />
  <sodipodi:namedview
     id="base"
     pagecolor="#ffffff"
     bordercolor="#666666"
     borderopacity="1.0"
     inkscape:pageopacity="0.0"
     inkscape:pageshadow="2"
     inkscape:zoom="1.6905748"
     inkscape:cx="278.65407"
     inkscape:cy="116.64755"
     inkscape:document-units="mm"
     inkscape:current-layer="layer1"
     showgrid="true"
     units="px"
     inkscape:snap-object-midpoints="true"
     inkscape:window-width="1920"
     inkscape:window-height="1001"
     inkscape:window-x="-9"
     inkscape:window-y="-9"
     inkscape:window-maximized="1">
    <inkscape:grid
       spacingx="2.6458333"
       spacingy="2.6458333"
       type="xygrid"
       id="grid4518" />
  </sodipodi:namedview>
  <metadata
     id="metadata5">
    <rdf:RDF>
      <cc:Work
         rdf:about="">
        <dc:format>image/svg+xml</dc:format>
        <dc:type
           rdf:resource="http://purl.org/dc/dcmitype/StillImage" />
        <dc:title></dc:title>
      </cc:Work>
    </rdf:RDF>
  </metadata>
  <g
     inkscape:groupmode="layer"
     id="layer2"
     inkscape:label="edges">
    <path
       style="fill:none;stroke:#000000;stroke-width:0.5291667;stroke-linecap:butt;stroke-linejoin:miter;stroke-miterlimit:4;stroke-dasharray:none;stroke-opacity:1"
       d="m 0,26.458333 52.916667,1e-6"
       id="path1436"
       inkscape:connector-curvature="0" />
  </g>
  <g
     inkscape:label="Layer 1"
     inkscape:groupmode="layer"
     id="layer1"
     transform="translate(0,-244.08332)"
     style="display:inline;opacity:1">
    <circle
       style="fill:#e8a6a6;fill-opacity:1;stroke:#000000;stroke-width:0.52916676;stroke-linejoin:round;stroke-miterlimit:4;stroke-dasharray:none;stroke-opacity:1"
       id="path4525-1"
       cx="39.6875"
       cy="270.54166"
       r="2.6458333" />
    <path
       style="fill:none;stroke:#000000;stroke-width:0.52916667;stroke-linecap:butt;stroke-linejoin:miter;stroke-opacity:1;stroke-miterlimit:4;stroke-dasharray:none"
       d="M 60.854166,267.89582 H 71.437499"
       id="path1424"
       inkscape:connector-curvature="0" />
    <path
       style="fill:none;stroke:#000000;stroke-width:0.52916667;stroke-linecap:butt;stroke-linejoin:miter;stroke-opacity:1;stroke-miterlimit:4;stroke-dasharray:none"
       d="M 60.854166,273.18749 H 71.437499"
       id="path1426"
       inkscape:connector-curvature="0" />
    <circle
       style="fill:#dbf8d8;fill-opacity:1;stroke:#000000;stroke-width:0.5291667;stroke-linejoin:round;stroke-miterlimit:4;stroke-dasharray:none;stroke-opacity:1"
       id="path4525"
       cx="13.229166"
       cy="270.54166"
       r="2.6458333" />
    <path
       id="text2175"
       d="m 13.697378,269.68802 h 0.370205 l -0.224259,1.00822 c -0.0435,0.19163 -0.0733,0.30921 -0.08939,0.35276 0.05808,0.26714 0.142256,0.40069 0.252751,0.40069 0.130516,0 0.198159,-0.09 0.202509,-0.27002 h 0.07831 c -0.0043,0.1684 -0.03524,0.3045 -0.09245,0.4083 -0.05743,0.10384 -0.132473,0.15561 -0.225569,0.15561 -0.07679,0 -0.134205,-0.0311 -0.17184,-0.0935 -0.03785,-0.0624 -0.07852,-0.19018 -0.122021,-0.38325 -0.150968,0.31793 -0.397843,0.4768 -0.740433,0.4768 -0.233609,0 -0.419593,-0.091 -0.557499,-0.2732 -0.137906,-0.1822 -0.206859,-0.44315 -0.206859,-0.78285 0,-0.33388 0.07548,-0.59375 0.226434,-0.77958 0.150956,-0.18581 0.332591,-0.27872 0.544449,-0.27872 0.149647,0 0.272328,0.053 0.368042,0.15896 0.09592,0.10598 0.180758,0.27873 0.25471,0.51827 z m -0.191634,0.85363 c -0.0683,-0.23374 -0.144431,-0.41628 -0.228609,-0.54766 -0.08418,-0.13139 -0.185108,-0.19708 -0.302789,-0.19708 -0.265586,0 -0.398492,0.31066 -0.398492,0.932 0,0.58941 0.127031,0.88409 0.381091,0.88409 0.220775,0 0.384133,-0.25984 0.490062,-0.77957 z"
       inkscape:connector-curvature="0"
       sodipodi:nodetypes="ccccscccsccssscsccccsssscc"
       style="stroke-width:0.25771108" />
    <path
       style="font-style:normal;font-weight:normal;font-size:2050.27807617px;font-family:'Times New Roman';fill:#000000;fill-opacity:1;stroke:none;stroke-width:0.25771099px;stroke-linecap:butt;stroke-linejoin:miter;stroke-opacity:1"
       d="m 40.739353,269.52531 v 0.31438 H 40.23978 l -0.04306,0.65459 c -0.0085,0.11339 -0.01289,0.21173 -0.01289,0.295 0,0.19952 0.02345,0.32118 0.06999,0.36497 0.04665,0.0438 0.102981,0.0657 0.169033,0.0657 0.137798,0 0.219621,-0.0868 0.24547,-0.26055 h 0.07752 c -0.04739,0.39907 -0.206736,0.59859 -0.478029,0.59859 -0.12633,0 -0.227893,-0.0388 -0.304691,-0.11625 -0.0768,-0.0775 -0.115197,-0.19238 -0.115197,-0.34454 0,-0.10048 0.01495,-0.31294 0.0452,-0.63737 l 0.05814,-0.62013 h -0.456484 c -0.03015,0.52251 -0.06639,0.90436 -0.108754,1.14553 -0.04234,0.24116 -0.08899,0.39692 -0.139963,0.46725 -0.05095,0.0704 -0.120222,0.10551 -0.207792,0.10551 -0.06603,0 -0.12164,-0.0193 -0.166868,-0.0581 -0.04523,-0.0387 -0.06783,-0.0897 -0.06783,-0.15287 0,-0.0603 0.03876,-0.14283 0.116279,-0.24761 0.113393,-0.15218 0.198103,-0.31044 0.254078,-0.47481 0.056,-0.16437 0.09834,-0.426 0.127051,-0.78486 h -0.146431 c -0.117697,0 -0.207793,0.0262 -0.270236,0.0786 -0.06244,0.0524 -0.12164,0.12741 -0.17764,0.22503 h -0.07752 c 0.04165,-0.15359 0.09546,-0.27992 0.161508,-0.37899 0.06603,-0.099 0.133855,-0.16365 0.203488,-0.1938 0.06961,-0.0301 0.193413,-0.0452 0.371439,-0.0452 z"
       id="text2175-2"
       inkscape:connector-curvature="0"
       sodipodi:nodetypes="cccccccccscccccccsccccccccccccc" />
    <path
       style="fill:none;stroke:#000000;stroke-width:0.52916676;stroke-linecap:butt;stroke-linejoin:miter;stroke-miterlimit:4;stroke-dasharray:none;stroke-opacity:1"
       d="M 79.374998,270.54165 H 132.29167"
       id="path1436-2"
       inkscape:connector-curvature="0" />
    <circle
       style="display:inline;opacity:1;fill:#e8a6a6;fill-opacity:1;stroke:#000000;stroke-width:0.52916676;stroke-linejoin:round;stroke-miterlimit:4;stroke-dasharray:none;stroke-opacity:1"
       id="path4525-4"
       cx="92.604164"
       cy="270.54169"
       r="2.6458333" />
    <rect
       style="fill:#dbf8d8;fill-opacity:1;stroke:#000000;stroke-width:0.52916664;stroke-linejoin:round;stroke-miterlimit:4;stroke-dasharray:none;stroke-opacity:1"
       id="rect883"
       width="7.9375"
       height="5.2916665"
       x="113.50624"
       y="267.89581"
       rx="2.6458333"
       ry="2.6458333" />
    <path
       id="text2175-5"
       d="m 119.07985,269.57917 h 0.37021 l -0.22426,1.00822 c -0.0435,0.19163 -0.0733,0.30921 -0.0894,0.35276 0.0581,0.26714 0.14225,0.40069 0.25275,0.40069 0.13052,0 0.19816,-0.09 0.20251,-0.27002 h 0.0783 c -0.004,0.1684 -0.0352,0.3045 -0.0924,0.4083 -0.0574,0.10384 -0.13247,0.15561 -0.22557,0.15561 -0.0768,0 -0.13421,-0.0311 -0.17184,-0.0935 -0.0378,-0.0624 -0.0785,-0.19018 -0.12202,-0.38325 -0.15097,0.31793 -0.39784,0.4768 -0.74043,0.4768 -0.23361,0 -0.4196,-0.091 -0.5575,-0.2732 -0.13791,-0.1822 -0.20686,-0.44315 -0.20686,-0.78285 0,-0.33388 0.0755,-0.59375 0.22643,-0.77958 0.15096,-0.18581 0.33259,-0.27872 0.54445,-0.27872 0.14965,0 0.27233,0.053 0.36804,0.15896 0.0959,0.10598 0.18076,0.27873 0.25471,0.51827 z m -0.19163,0.85363 c -0.0683,-0.23374 -0.14443,-0.41628 -0.22861,-0.54766 -0.0842,-0.13139 -0.18511,-0.19708 -0.30279,-0.19708 -0.26559,0 -0.39849,0.31066 -0.39849,0.932 0,0.58941 0.12703,0.88409 0.38109,0.88409 0.22077,0 0.38413,-0.25984 0.49006,-0.77957 z"
       inkscape:connector-curvature="0"
       sodipodi:nodetypes="ccccscccsccssscsccccsssscc"
       style="display:inline;opacity:1;stroke-width:0.25771108" />
    <path
       style="font-style:normal;font-weight:normal;font-size:2050.27807617px;font-family:'Times New Roman';display:inline;opacity:1;fill:#000000;fill-opacity:1;stroke:none;stroke-width:0.25771099px;stroke-linecap:butt;stroke-linejoin:miter;stroke-opacity:1"
       d="m 93.656071,269.52531 v 0.31438 h -0.49957 l -0.0431,0.65459 c -0.008,0.11339 -0.0129,0.21173 -0.0129,0.295 0,0.19952 0.0234,0.32118 0.07,0.36497 0.0466,0.0438 0.10298,0.0657 0.16903,0.0657 0.1378,0 0.21962,-0.0868 0.24547,-0.26055 h 0.0775 c -0.0474,0.39907 -0.20673,0.59859 -0.47803,0.59859 -0.12632,0 -0.22789,-0.0388 -0.30469,-0.11625 -0.0768,-0.0775 -0.11519,-0.19238 -0.11519,-0.34454 0,-0.10048 0.0149,-0.31294 0.0452,-0.63737 l 0.0581,-0.62013 h -0.45649 c -0.0301,0.52251 -0.0664,0.90436 -0.10875,1.14553 -0.0423,0.24116 -0.089,0.39692 -0.13996,0.46725 -0.051,0.0704 -0.12023,0.10551 -0.20779,0.10551 -0.066,0 -0.12164,-0.0193 -0.16687,-0.0581 -0.0452,-0.0387 -0.0678,-0.0897 -0.0678,-0.15287 0,-0.0603 0.0388,-0.14283 0.11628,-0.24761 0.11339,-0.15218 0.1981,-0.31044 0.25408,-0.47481 0.056,-0.16437 0.0983,-0.426 0.12705,-0.78486 h -0.14643 c -0.1177,0 -0.2078,0.0262 -0.27024,0.0786 -0.0624,0.0524 -0.12164,0.12741 -0.17764,0.22503 h -0.0775 c 0.0417,-0.15359 0.0955,-0.27992 0.16151,-0.37899 0.066,-0.099 0.13385,-0.16365 0.20349,-0.1938 0.0696,-0.0301 0.19341,-0.0452 0.37144,-0.0452 z"
       id="text2175-2-3"
       inkscape:connector-curvature="0"
       sodipodi:nodetypes="cccccccccscccccccsccccccccccccc" />
    <path
       style="fill:none;stroke:#000000;stroke-width:0.26458332px;stroke-linecap:butt;stroke-linejoin:miter;stroke-opacity:1"
       d="m 115.35834,270.54165 h 1.32292"
       id="path885"
       inkscape:connector-curvature="0" />
  </g>
</svg>
