<?xml version="1.0" encoding="UTF-8" standalone="no"?>
<!-- Created with Inkscape (http://www.inkscape.org/) -->

<svg
   xmlns:dc="http://purl.org/dc/elements/1.1/"
   xmlns:cc="http://creativecommons.org/ns#"
   xmlns:rdf="http://www.w3.org/1999/02/22-rdf-syntax-ns#"
   xmlns:svg="http://www.w3.org/2000/svg"
   xmlns="http://www.w3.org/2000/svg"
   xmlns:sodipodi="http://sodipodi.sourceforge.net/DTD/sodipodi-0.dtd"
   xmlns:inkscape="http://www.inkscape.org/namespaces/inkscape"
   width="500"
   height="200"
   viewBox="0 0 132.29167 52.916667"
   version="1.1"
   id="svg8"
   inkscape:version="0.92.3 (2405546, 2018-03-11)"
   sodipodi:docname="sp1r.svg">
  <defs
     id="defs2" />
  <sodipodi:namedview
     id="base"
     pagecolor="#ffffff"
     bordercolor="#666666"
     borderopacity="1.0"
     inkscape:pageopacity="0.0"
     inkscape:pageshadow="2"
     inkscape:zoom="1.6905748"
     inkscape:cx="19.514108"
     inkscape:cy="116.64755"
     inkscape:document-units="mm"
     inkscape:current-layer="layer1"
     showgrid="true"
     units="px"
     inkscape:snap-object-midpoints="true"
     inkscape:window-width="1920"
     inkscape:window-height="1001"
     inkscape:window-x="-9"
     inkscape:window-y="-9"
     inkscape:window-maximized="1">
    <inkscape:grid
       spacingx="2.6458333"
       spacingy="2.6458333"
       type="xygrid"
       id="grid4518" />
  </sodipodi:namedview>
  <metadata
     id="metadata5">
    <rdf:RDF>
      <cc:Work
         rdf:about="">
        <dc:format>image/svg+xml</dc:format>
        <dc:type
           rdf:resource="http://purl.org/dc/dcmitype/StillImage" />
        <dc:title />
      </cc:Work>
    </rdf:RDF>
  </metadata>
  <g
     inkscape:groupmode="layer"
     id="layer2"
     inkscape:label="edges">
    <path
       style="fill:none;stroke:#000000;stroke-width:0.52916667;stroke-linecap:butt;stroke-linejoin:miter;stroke-opacity:1;stroke-miterlimit:4;stroke-dasharray:none"
       d="m 0,7.9375004 c 7.9374999,2e-7 8.819444,3.5277776 13.229166,5.2916666 C 8.819444,14.993056 7.9374999,18.520834 0,18.520834"
       id="path1428"
       inkscape:connector-curvature="0"
       sodipodi:nodetypes="ccc" />
    <path
       style="fill:none;stroke:#000000;stroke-width:0.52916667;stroke-linecap:butt;stroke-linejoin:miter;stroke-opacity:1;stroke-miterlimit:4;stroke-dasharray:none"
       d="m 52.916666,7.9375004 c -26.458333,2e-7 -26.458333,3.5277776 -39.6875,5.2916666 13.229167,1.763889 13.229167,5.291667 39.6875,5.291667"
       id="path1430"
       inkscape:connector-curvature="0"
       sodipodi:nodetypes="ccc" />
    <path
       style="fill:none;stroke:#000000;stroke-width:0.52916667;stroke-linecap:butt;stroke-linejoin:miter;stroke-opacity:1;stroke-miterlimit:4;stroke-dasharray:none"
       d="m 0,34.395833 c 26.458333,10e-7 26.458333,3.527778 39.6875,5.291667 v 0 C 26.458333,41.451389 26.458333,44.979167 0,44.979166"
       id="path1432"
       inkscape:connector-curvature="0"
       sodipodi:nodetypes="cccc" />
    <path
       style="fill:none;stroke:#000000;stroke-width:0.52916667;stroke-linecap:butt;stroke-linejoin:miter;stroke-opacity:1;stroke-miterlimit:4;stroke-dasharray:none"
       d="m 52.916666,34.395833 c -7.9375,10e-7 -8.819444,3.527778 -13.229166,5.291667 4.409722,1.763889 5.291666,5.291667 13.229166,5.291666"
       id="path1434"
       inkscape:connector-curvature="0"
       sodipodi:nodetypes="ccc" />
    <path
       style="fill:none;stroke:#000000;stroke-width:0.52916667;stroke-linecap:butt;stroke-linejoin:miter;stroke-opacity:1;stroke-miterlimit:4;stroke-dasharray:none"
       d="M 13.229166,13.229167 39.6875,39.6875"
       id="path1436"
       inkscape:connector-curvature="0" />
    <text
       xml:space="preserve"
       style="font-style:normal;font-variant:normal;font-weight:normal;font-stretch:normal;font-size:4.23333359px;line-height:1.25;font-family:Tahoma;-inkscape-font-specification:Tahoma;letter-spacing:0px;word-spacing:0px;fill:#000000;fill-opacity:1;stroke:none;stroke-width:0.5291667;stroke-miterlimit:4;stroke-dasharray:none"
       x="-15.110314"
       y="50.509411"
       id="text5177-2"
       transform="rotate(-90)"><tspan
         sodipodi:role="line"
         id="tspan5175-9"
         x="-15.110314"
         y="50.509411"
         style="font-size:4.23333359px;stroke-width:0.5291667;stroke-miterlimit:4;stroke-dasharray:none">...</tspan></text>
    <text
       xml:space="preserve"
       style="font-style:normal;font-variant:normal;font-weight:normal;font-stretch:normal;font-size:4.23333359px;line-height:1.25;font-family:Tahoma;-inkscape-font-specification:Tahoma;letter-spacing:0px;word-spacing:0px;opacity:1;fill:#000000;fill-opacity:1;stroke:none;stroke-width:0.5291667;stroke-miterlimit:4;stroke-dasharray:none"
       x="-15.127835"
       y="2.9406803"
       id="text5177-2-1"
       transform="rotate(-90)"><tspan
         sodipodi:role="line"
         id="tspan5175-9-1"
         x="-15.127835"
         y="2.9406803"
         style="font-size:4.23333359px;stroke-width:0.5291667;stroke-miterlimit:4;stroke-dasharray:none">...</tspan></text>
    <text
       xml:space="preserve"
       style="font-style:normal;font-variant:normal;font-weight:normal;font-stretch:normal;font-size:4.23333359px;line-height:1.25;font-family:Tahoma;-inkscape-font-specification:Tahoma;letter-spacing:0px;word-spacing:0px;fill:#000000;fill-opacity:1;stroke:none;stroke-width:0.5291667;stroke-miterlimit:4;stroke-dasharray:none"
       x="-41.599422"
       y="50.558163"
       id="text5177-2-6"
       transform="rotate(-90)"><tspan
         sodipodi:role="line"
         id="tspan5175-9-7"
         x="-41.599422"
         y="50.558163"
         style="font-size:4.23333359px;stroke-width:0.5291667;stroke-miterlimit:4;stroke-dasharray:none">...</tspan></text>
    <text
       xml:space="preserve"
       style="font-style:normal;font-variant:normal;font-weight:normal;font-stretch:normal;font-size:4.23333359px;line-height:1.25;font-family:Tahoma;-inkscape-font-specification:Tahoma;letter-spacing:0px;word-spacing:0px;fill:#000000;fill-opacity:1;stroke:none;stroke-width:0.5291667;stroke-miterlimit:4;stroke-dasharray:none"
       x="-41.616943"
       y="2.9894314"
       id="text5177-2-1-6"
       transform="rotate(-90)"><tspan
         sodipodi:role="line"
         id="tspan5175-9-1-9"
         x="-41.616943"
         y="2.9894314"
         style="font-size:4.23333359px;stroke-width:0.5291667;stroke-miterlimit:4;stroke-dasharray:none">...</tspan></text>
    <path
       style="fill:none;stroke:#000000;stroke-width:0.52916667;stroke-linecap:butt;stroke-linejoin:miter;stroke-opacity:1;stroke-miterlimit:4;stroke-dasharray:none"
       d="M 79.424132,7.806371 C 92.604166,7.9375006 97.030264,20.241013 105.83333,26.458334 97.030264,23.76879 92.604166,18.520834 79.424132,18.389703"
       id="path1428-9"
       inkscape:connector-curvature="0"
       sodipodi:nodetypes="ccc" />
    <path
       style="fill:none;stroke:#000000;stroke-width:0.52916667;stroke-linecap:butt;stroke-linejoin:miter;stroke-opacity:1;stroke-miterlimit:4;stroke-dasharray:none"
       d="m 132.3408,7.806371 c -13.2783,0.1311296 -17.67165,12.434642 -26.50747,18.651963 8.83582,-2.689544 13.22917,-7.9375 26.50747,-8.068631"
       id="path1430-6"
       inkscape:connector-curvature="0"
       sodipodi:nodetypes="ccc" />
    <path
       style="fill:none;stroke:#000000;stroke-width:0.52916667;stroke-linecap:butt;stroke-linejoin:miter;stroke-opacity:1;stroke-miterlimit:4;stroke-dasharray:none"
       d="m 79.424132,34.264701 c 13.180034,0.131133 17.606132,-5.204245 26.409198,-7.806367 v 0 c -8.803066,6.1299 -13.229165,18.520833 -26.409198,18.389701"
       id="path1432-4"
       inkscape:connector-curvature="0"
       sodipodi:nodetypes="cccc" />
    <path
       style="fill:none;stroke:#000000;stroke-width:0.52916667;stroke-linecap:butt;stroke-linejoin:miter;stroke-opacity:1;stroke-miterlimit:4;stroke-dasharray:none"
       d="m 132.3408,34.264701 c -13.2783,0.131133 -17.67165,-5.204245 -26.50747,-7.806367 8.83582,6.1299 13.22917,18.520833 26.50747,18.389701"
       id="path1434-1"
       inkscape:connector-curvature="0"
       sodipodi:nodetypes="ccc" />
    <text
       xml:space="preserve"
       style="font-style:normal;font-variant:normal;font-weight:normal;font-stretch:normal;font-size:4.23333359px;line-height:1.25;font-family:Tahoma;-inkscape-font-specification:Tahoma;letter-spacing:0px;word-spacing:0px;fill:#000000;fill-opacity:1;stroke:none;stroke-width:0.5291667;stroke-miterlimit:4;stroke-dasharray:none"
       x="-14.979185"
       y="129.93352"
       id="text5177-2-0"
       transform="rotate(-90)"><tspan
         sodipodi:role="line"
         id="tspan5175-9-18"
         x="-14.979185"
         y="129.93352"
         style="font-size:4.23333359px;stroke-width:0.5291667;stroke-miterlimit:4;stroke-dasharray:none">...</tspan></text>
    <text
       xml:space="preserve"
       style="font-style:normal;font-variant:normal;font-weight:normal;font-stretch:normal;font-size:4.23333359px;line-height:1.25;font-family:Tahoma;-inkscape-font-specification:Tahoma;letter-spacing:0px;word-spacing:0px;fill:#000000;fill-opacity:1;stroke:none;stroke-width:0.5291667;stroke-miterlimit:4;stroke-dasharray:none"
       x="-14.996706"
       y="82.364815"
       id="text5177-2-1-8"
       transform="rotate(-90)"><tspan
         sodipodi:role="line"
         id="tspan5175-9-1-7"
         x="-14.996706"
         y="82.364815"
         style="font-size:4.23333359px;stroke-width:0.5291667;stroke-miterlimit:4;stroke-dasharray:none">...</tspan></text>
    <text
       xml:space="preserve"
       style="font-style:normal;font-variant:normal;font-weight:normal;font-stretch:normal;font-size:4.23333359px;line-height:1.25;font-family:Tahoma;-inkscape-font-specification:Tahoma;letter-spacing:0px;word-spacing:0px;fill:#000000;fill-opacity:1;stroke:none;stroke-width:0.5291667;stroke-miterlimit:4;stroke-dasharray:none"
       x="-41.468288"
       y="129.98227"
       id="text5177-2-6-6"
       transform="rotate(-90)"><tspan
         sodipodi:role="line"
         id="tspan5175-9-7-6"
         x="-41.468288"
         y="129.98227"
         style="font-size:4.23333359px;stroke-width:0.5291667;stroke-miterlimit:4;stroke-dasharray:none">...</tspan></text>
    <text
       xml:space="preserve"
       style="font-style:normal;font-variant:normal;font-weight:normal;font-stretch:normal;font-size:4.23333359px;line-height:1.25;font-family:Tahoma;-inkscape-font-specification:Tahoma;letter-spacing:0px;word-spacing:0px;fill:#000000;fill-opacity:1;stroke:none;stroke-width:0.5291667;stroke-miterlimit:4;stroke-dasharray:none"
       x="-41.485806"
       y="82.413567"
       id="text5177-2-1-6-1"
       transform="rotate(-90)"><tspan
         sodipodi:role="line"
         id="tspan5175-9-1-9-0"
         x="-41.485806"
         y="82.413567"
         style="font-size:4.23333359px;stroke-width:0.5291667;stroke-miterlimit:4;stroke-dasharray:none">...</tspan></text>
    <rect
       style="fill:#e8a6a6;fill-opacity:1;stroke:#000000;stroke-width:0.52916667;stroke-linejoin:round;stroke-miterlimit:4;stroke-dasharray:none;stroke-opacity:1"
       id="rect5314"
       width="15.875"
       height="5.2916665"
       x="97.895836"
       y="23.8125"
       rx="2.6458333" />
    <path
       style="font-style:normal;font-weight:normal;font-size:2050.27807617px;font-family:'Times New Roman';display:inline;opacity:1;fill:#000000;fill-opacity:1;stroke:none;stroke-width:0.52916667;stroke-linecap:butt;stroke-linejoin:miter;stroke-opacity:1;stroke-miterlimit:4;stroke-dasharray:none"
       d="m 108.84327,28.276356 h -0.30544 c 0.0444,-0.20859 0.0666,-0.397399 0.0666,-0.56647 v -2.016019 c 0,-0.209791 0.0188,-0.365911 0.0565,-0.468361 0.0376,-0.102449 0.11106,-0.192849 0.22028,-0.271208 0.10921,-0.0784 0.24591,-0.11752 0.41004,-0.11752 0.19502,0 0.35885,0.0515 0.49152,0.15458 0.13267,0.10309 0.199,0.249629 0.199,0.43969 0,0.22216 -0.10553,0.40417 -0.31656,0.5461 0.31472,0.148109 0.47208,0.380759 0.47208,0.697918 0,0.17277 -0.0417,0.327361 -0.12497,0.46374 -0.0833,0.136361 -0.17957,0.233551 -0.28879,0.291582 -0.10922,0.058 -0.23975,0.087 -0.39155,0.087 -0.17277,0 -0.31348,-0.0647 -0.42206,-0.194392 v 0.34435 c 0,0.236921 -0.0221,0.43996 -0.0667,0.609042 z m 0.0667,-1.12 c 0.0962,0.159211 0.23077,0.238811 0.40358,0.238811 0.16661,0 0.28879,-0.0608 0.36651,-0.182351 0.0778,-0.12155 0.11663,-0.269359 0.11667,-0.443378 -3e-5,-0.133271 -0.0255,-0.269362 -0.0769,-0.408192 -0.0512,-0.13884 -0.11692,-0.244678 -0.19713,-0.317479 -0.0741,0.0185 -0.14071,0.0278 -0.19995,0.0278 -0.12465,0 -0.18697,-0.0328 -0.18697,-0.0981 0,-0.0593 0.0524,-0.0888 0.15736,-0.0888 0.0654,0 0.14684,0.01471 0.24437,0.0445 0.0876,-0.148109 0.13143,-0.30915 0.13143,-0.483169 0,-0.155519 -0.0342,-0.27463 -0.10275,-0.357309 -0.0685,-0.0827 -0.15767,-0.124021 -0.26752,-0.124021 -0.0876,0 -0.16259,0.02479 -0.22491,0.0741 -0.0623,0.0494 -0.10523,0.108292 -0.12868,0.1768 -0.0234,0.0685 -0.0351,0.180512 -0.0351,0.335992 z"
       id="text2175-8-1"
       inkscape:connector-curvature="0"
       sodipodi:nodetypes="cccccccccccccsccccsccccccccccccccc" />
    <path
       id="text2175-85"
       d="m 102.83099,25.5286 h 0.37021 l -0.22427,1.008217 c -0.0434,0.191629 -0.0733,0.309211 -0.0894,0.352763 0.0581,0.267137 0.14225,0.400687 0.25274,0.400687 0.13052,0 0.19816,-0.09001 0.20252,-0.270023 h 0.0783 c -0.003,0.168398 -0.0352,0.304496 -0.0924,0.408302 -0.0575,0.10384 -0.13247,0.155604 -0.22557,0.155604 -0.0768,0 -0.1342,-0.03108 -0.17184,-0.09355 -0.0378,-0.06241 -0.0785,-0.190174 -0.12201,-0.383242 -0.15097,0.317923 -0.39785,0.476795 -0.74043,0.476795 -0.23362,0 -0.4196,-0.09101 -0.55751,-0.273202 -0.1379,-0.182192 -0.20685,-0.443144 -0.20685,-0.782842 0,-0.33388 0.0754,-0.593745 0.22643,-0.779572 0.15095,-0.185812 0.33259,-0.278718 0.54444,-0.278718 0.14966,0 0.27233,0.05298 0.36805,0.158954 0.0959,0.105976 0.18076,0.278732 0.25471,0.518269 z m -0.19162,0.853627 c -0.0683,-0.233742 -0.14443,-0.416277 -0.22862,-0.54766 -0.0842,-0.131384 -0.1851,-0.197079 -0.30278,-0.197079 -0.26559,0 -0.39851,0.310666 -0.39851,0.931996 0,0.589407 0.12704,0.884091 0.3811,0.884091 0.22078,0 0.38414,-0.259843 0.49007,-0.779573 z"
       inkscape:connector-curvature="0"
       sodipodi:nodetypes="ccccscccsccssscsccccsssscc"
       style="display:inline;opacity:1;stroke-width:0.52916667;stroke-miterlimit:4;stroke-dasharray:none" />
    <text
       xml:space="preserve"
       style="font-style:normal;font-variant:normal;font-weight:normal;font-stretch:normal;font-size:3.22539687px;line-height:1.25;font-family:Tahoma;-inkscape-font-specification:Tahoma;letter-spacing:0px;word-spacing:0px;fill:#000000;fill-opacity:1;stroke:none;stroke-width:0.52916667;stroke-miterlimit:4;stroke-dasharray:none"
       x="104.64598"
       y="27.488543"
       id="text5318"><tspan
         sodipodi:role="line"
         id="tspan5316"
         x="104.64598"
         y="27.488543"
         style="stroke-width:0.52916667;stroke-miterlimit:4;stroke-dasharray:none">+</tspan></text>
  </g>
  <g
     inkscape:label="Layer 1"
     inkscape:groupmode="layer"
     id="layer1"
     transform="translate(0,-244.08332)"
     style="display:inline;opacity:1">
    <circle
       style="fill:#e8a6a6;fill-opacity:1;stroke:#000000;stroke-width:0.52916676;stroke-linejoin:round;stroke-miterlimit:4;stroke-dasharray:none;stroke-opacity:1"
       id="path4525-1"
       cx="39.6875"
       cy="283.77081"
       r="2.6458333" />
    <path
       style="fill:none;stroke:#000000;stroke-width:0.52916667;stroke-linecap:butt;stroke-linejoin:miter;stroke-opacity:1;stroke-miterlimit:4;stroke-dasharray:none"
       d="M 60.854166,267.89582 H 71.437499"
       id="path1424"
       inkscape:connector-curvature="0" />
    <path
       style="fill:none;stroke:#000000;stroke-width:0.52916667;stroke-linecap:butt;stroke-linejoin:miter;stroke-opacity:1;stroke-miterlimit:4;stroke-dasharray:none"
       d="M 60.854166,273.18749 H 71.437499"
       id="path1426"
       inkscape:connector-curvature="0" />
    <circle
       style="fill:#e8a6a6;fill-opacity:1;stroke:#000000;stroke-width:0.5291667;stroke-linejoin:round;stroke-miterlimit:4;stroke-dasharray:none;stroke-opacity:1"
       id="path4525"
       cx="13.229166"
       cy="257.3125"
       r="2.6458333" />
    <path
       id="text2175"
       d="m 13.697378,256.45886 h 0.370205 l -0.224259,1.00822 c -0.0435,0.19163 -0.0733,0.30921 -0.08939,0.35276 0.05808,0.26714 0.142256,0.40069 0.252751,0.40069 0.130516,0 0.198159,-0.09 0.202509,-0.27002 h 0.07831 c -0.0043,0.1684 -0.03524,0.3045 -0.09245,0.4083 -0.05743,0.10384 -0.132473,0.15561 -0.225569,0.15561 -0.07679,0 -0.134205,-0.0311 -0.17184,-0.0935 -0.03785,-0.0624 -0.07852,-0.19018 -0.122021,-0.38325 -0.150968,0.31793 -0.397843,0.4768 -0.740433,0.4768 -0.233609,0 -0.419593,-0.091 -0.557499,-0.2732 -0.137906,-0.1822 -0.206859,-0.44315 -0.206859,-0.78285 0,-0.33388 0.07548,-0.59375 0.226434,-0.77958 0.150956,-0.18581 0.332591,-0.27872 0.544449,-0.27872 0.149647,0 0.272328,0.053 0.368042,0.15896 0.09592,0.10598 0.180758,0.27873 0.25471,0.51827 z m -0.191634,0.85363 c -0.0683,-0.23374 -0.144431,-0.41628 -0.228609,-0.54766 -0.08418,-0.13139 -0.185108,-0.19708 -0.302789,-0.19708 -0.265586,0 -0.398492,0.31066 -0.398492,0.932 0,0.58941 0.127031,0.88409 0.381091,0.88409 0.220775,0 0.384133,-0.25984 0.490062,-0.77957 z"
       inkscape:connector-curvature="0"
       sodipodi:nodetypes="ccccscccsccssscsccccsssscc"
       style="stroke-width:0.25771108" />
    <path
       style="font-style:normal;font-weight:normal;font-size:2050.27807617px;font-family:'Times New Roman';fill:#000000;fill-opacity:1;stroke:none;stroke-width:0.25771129px;stroke-linecap:butt;stroke-linejoin:miter;stroke-opacity:1"
       d="m 39.377763,285.62291 h -0.305445 c 0.04442,-0.20859 0.06664,-0.3974 0.06664,-0.56647 v -2.01602 c 0,-0.20979 0.01876,-0.36591 0.05649,-0.46836 0.03762,-0.10245 0.11106,-0.19285 0.22028,-0.27121 0.109214,-0.0784 0.24591,-0.11752 0.410039,-0.11752 0.19502,0 0.358849,0.0515 0.491519,0.15458 0.132671,0.10309 0.199007,0.24963 0.199007,0.43969 0,0.22216 -0.105535,0.40417 -0.316568,0.5461 0.314725,0.14811 0.472087,0.38076 0.472087,0.69792 0,0.17277 -0.04168,0.32736 -0.12497,0.46374 -0.08332,0.13636 -0.179575,0.23355 -0.288794,0.29158 -0.109214,0.058 -0.239745,0.087 -0.391546,0.087 -0.172773,0 -0.313485,-0.0647 -0.422067,-0.19439 v 0.34435 c 0,0.23692 -0.02211,0.43996 -0.06668,0.60904 z m 0.06668,-1.12 c 0.09625,0.15921 0.230767,0.23881 0.403573,0.23881 0.16661,0 0.288794,-0.0608 0.36652,-0.18235 0.07777,-0.12155 0.116624,-0.26936 0.116663,-0.44338 -3.4e-5,-0.13327 -0.02547,-0.26936 -0.07686,-0.40819 -0.05119,-0.13884 -0.116923,-0.24468 -0.19713,-0.31748 -0.07408,0.0185 -0.140712,0.0278 -0.199945,0.0278 -0.124658,0 -0.186978,-0.0328 -0.186978,-0.0981 0,-0.0593 0.05243,-0.0888 0.157362,-0.0888 0.0654,0 0.146842,0.0147 0.244369,0.0445 0.08761,-0.14811 0.131431,-0.30915 0.131431,-0.48317 0,-0.15552 -0.03424,-0.27463 -0.102753,-0.35731 -0.06848,-0.0827 -0.157664,-0.12402 -0.267519,-0.12402 -0.08761,0 -0.162588,0.0248 -0.224904,0.0741 -0.06235,0.0494 -0.105236,0.10829 -0.128688,0.1768 -0.02345,0.0685 -0.03514,0.18051 -0.03514,0.33599 z"
       id="text2175-8"
       inkscape:connector-curvature="0"
       sodipodi:nodetypes="cccccccccccccsccccsccccccccccccccc" />
  </g>
</svg>
